<?xml version="1.0" encoding="UTF-8" standalone="no"?>
<svg width="394px" height="205px" viewBox="0 0 394 205" version="1.1" xmlns="http://www.w3.org/2000/svg" xmlns:xlink="http://www.w3.org/1999/xlink" xmlns:sketch="http://www.bohemiancoding.com/sketch/ns">
    <!-- Generator: Sketch 3.3.2 (12043) - http://www.bohemiancoding.com/sketch -->
    <title>iconos</title>
    <desc>Created with Sketch.</desc>
    <defs></defs>
    <g id="Page-1" stroke="none" stroke-width="1" fill="none" fill-rule="evenodd" sketch:type="MSPage">
        <g id="iconos" sketch:type="MSArtboardGroup">
            <g id="Oval-3-Copy-+-Flow-Chart" sketch:type="MSLayerGroup" transform="translate(8.000000, 13.000000)">
                <ellipse id="Oval-3-Copy" stroke="#22A1E7" stroke-width="3" sketch:type="MSShapeGroup" cx="51" cy="51.5" rx="51" ry="51"></ellipse>
                <path d="M54.75,56.875 C54.75,58.394375 53.518,59.625 52,59.625 C50.480625,59.625 49.25,58.394375 49.25,56.875 C49.25,55.355625 50.480625,54.125 52,54.125 C53.518,54.125 54.75,55.355625 54.75,56.875 L54.75,56.875 Z M60.25,50 C60.25,50.760375 59.635375,51.375 58.875,51.375 L45.125,51.375 C44.364625,51.375 43.75,50.760375 43.75,50 C43.75,45.450125 47.450125,41.75 52,41.75 C56.549875,41.75 60.25,45.450125 60.25,50 L60.25,50 Z M57.325375,48.625 C56.714875,46.2545 54.5575,44.5 52,44.5 C49.4425,44.5 47.285125,46.2545 46.674625,48.625 L57.325375,48.625 L57.325375,48.625 Z M79.5,52.75 L79.5,61 C79.5,63.27425 77.64925,65.125 75.375,65.125 L28.625,65.125 C26.35075,65.125 24.5,63.27425 24.5,61 L24.5,52.75 C24.5,50.47575 26.35075,48.625 28.625,48.625 L30.042625,48.625 C30.257125,45.171 31.28425,41.937 32.916375,39.0935 C32.930125,39.06325 32.930125,39.03025 32.948,39 C32.960375,38.978 32.981,38.967 32.99475,38.946375 C34.901875,35.679375 37.632625,32.961 40.891375,31.042875 C40.93125,31.014 40.956,30.97275 41,30.948 C41.042625,30.921875 41.09075,30.921875 41.13475,30.90125 C44.345375,29.068375 48.0455,28 52,28 C55.9545,28 59.656,29.068375 62.86525,30.902625 C62.90925,30.921875 62.957375,30.921875 63,30.948 C63.044,30.97275 63.06875,31.014 63.108625,31.042875 C66.36875,32.961 69.098125,35.679375 71.00525,38.946375 C71.019,38.967 71.039625,38.979375 71.052,39 C71.069875,39.03025 71.069875,39.06325 71.083625,39.0935 C72.71575,41.937 73.742875,45.171 73.957375,48.625 L75.375,48.625 C77.64925,48.625 79.5,50.47575 79.5,52.75 L79.5,52.75 Z M76.75,52.7286102 C76.75,51.9679234 76.134,51.3505545 75.375,51.3505545 L68.5,51.3505545 C67.739625,51.3505545 67.125,50.7345636 67.125,49.9724988 C67.125,49.210434 67.739625,48.5944431 68.5,48.5944431 L71.179875,48.5944431 C71.0025,46.0850037 70.343875,43.7119918 69.29475,41.5567127 L66.9765,42.8975609 C66.75925,43.022964 66.524125,43.0822204 66.290375,43.0822204 C65.814625,43.0822204 65.352625,42.8341703 65.096875,42.3931925 C64.717375,41.7344819 64.942875,40.8911118 65.6015,40.5107684 L67.9335,39.1602739 C66.559875,37.133154 64.810875,35.3802671 62.786875,34.0035895 L61.44075,36.3407719 C61.186375,36.7831278 60.724375,37.0284217 60.248625,37.0284217 C60.014875,37.0284217 59.778375,36.9705434 59.5625,36.8451403 C58.90525,36.4634189 58.678375,35.6214269 59.05925,34.9613382 L60.397125,32.6393143 C58.246625,31.5878579 55.878875,30.9277692 53.375,30.75 L53.375,33.4358305 C53.375,34.1978953 52.760375,34.8138862 52,34.8138862 C51.239625,34.8138862 50.625,34.1978953 50.625,33.4358305 L50.625,30.75 C48.121125,30.9277692 45.753375,31.5878579 43.602875,32.6393143 L44.94075,34.9613382 C45.321625,35.6214269 45.096125,36.4634189 44.4375,36.8451403 C44.221625,36.9705434 43.985125,37.0284217 43.751375,37.0284217 C43.275625,37.0284217 42.813625,36.7831278 42.55925,36.3407719 L41.213125,34.0035895 C39.189125,35.3802671 37.440125,37.133154 36.0665,39.1616519 L38.3985,40.5107684 C39.05575,40.8911118 39.28125,41.7344819 38.90175,42.3931925 C38.646,42.8355484 38.184,43.0822204 37.709625,43.0822204 C37.475875,43.0822204 37.239375,43.022964 37.022125,42.8975609 L34.70525,41.5567127 C33.656125,43.7119918 32.9975,46.0850037 32.820125,48.5944431 L35.5,48.5944431 C36.260375,48.5944431 36.875,49.210434 36.875,49.9724988 C36.875,50.7345636 36.260375,51.3505545 35.5,51.3505545 L28.625,51.3505545 C27.866,51.3505545 27.25,51.9679234 27.25,52.7286102 L27.25,60.9969443 C27.25,61.7576311 27.866,62.375 28.625,62.375 L75.375,62.375 C76.134,62.375 76.75,61.7576311 76.75,60.9969443 L76.75,52.7286102 L76.75,52.7286102 Z" id="Protractor" fill="#22A1E7" sketch:type="MSShapeGroup"></path>
            </g>
            <g id="Oval-3-Copy-2-+-Graphs-Copy" sketch:type="MSLayerGroup" transform="translate(139.500000, 12.000000)">
                <ellipse id="Oval-3-Copy-2" stroke="#22A1E7" stroke-width="3" sketch:type="MSShapeGroup" cx="51" cy="51" rx="51" ry="51"></ellipse>
                <path d="M78.5,34.073547 L78.5,42.1221312 C78.5,42.8626009 77.899039,43.4635619 77.1572279,43.4635619 C76.4167581,43.4635619 75.8157972,42.8626009 75.8157972,42.1221312 L75.8157972,35.4149777 L69.1086437,35.4149777 C68.3681739,35.4149777 67.767213,34.8140167 67.767213,34.073547 C67.767213,33.3330772 68.3681739,32.7321163 69.1086437,32.7321163 L77.1572279,32.7321163 C77.899039,32.7321163 78.5,33.3330772 78.5,34.073547 L78.5,34.073547 Z M72.741238,38.4908783 C73.264396,39.0153777 73.264396,39.8645033 72.741238,40.3876613 L60.3008097,52.8280896 C60.7716519,53.6262408 61.0614009,54.5437794 61.0614009,55.5364381 C61.0614009,58.4956343 58.6535328,60.9021609 55.6943367,60.9021609 C52.736482,60.9021609 50.3299554,58.4956343 50.3299554,55.5364381 C50.3299554,54.5437794 50.618363,53.6262408 51.0892051,52.8280896 L47.6725812,49.4101241 C46.8744299,49.8823077 45.9555499,50.1707153 44.9642326,50.1707153 C43.9715739,50.1707153 43.0526938,49.8823077 42.2545426,49.4101241 L33.4721958,58.1938123 C33.943038,58.9919636 34.232787,59.9095022 34.232787,60.9021609 C34.232787,63.861357 31.8249189,66.2678837 28.8657228,66.2678837 C25.9078681,66.2678837 23.5,63.861357 23.5,60.9021609 C23.5,57.9443062 25.9078681,55.5364381 28.8657228,55.5364381 C29.8583815,55.5364381 30.7772615,55.8248457 31.5754128,56.2970293 L40.3577596,47.5133411 C39.8869174,46.7151899 39.5971684,45.7976513 39.5971684,44.8049926 C39.5971684,41.8471379 42.0050365,39.4392698 44.9642326,39.4392698 C47.9220873,39.4392698 50.3299554,41.8471379 50.3299554,44.8049926 C50.3299554,45.7976513 50.0402063,46.7151899 49.5693642,47.5133411 L52.9859881,50.9313066 C53.7841394,50.4591229 54.7030194,50.1707153 55.6943367,50.1707153 C56.6869954,50.1707153 57.6058755,50.4591229 58.4040267,50.9313066 L70.844455,38.4908783 C71.367613,37.9663789 72.2167386,37.9663789 72.741238,38.4908783 L72.741238,38.4908783 Z M31.5485842,60.9021609 C31.5485842,59.4225629 30.3466623,58.2192995 28.8657228,58.2192995 C27.3874662,58.2192995 26.1842028,59.4225629 26.1842028,60.9021609 C26.1842028,62.381759 27.3874662,63.5850223 28.8657228,63.5850223 C30.3466623,63.5850223 31.5485842,62.381759 31.5485842,60.9021609 L31.5485842,60.9021609 Z M47.6457525,44.8049926 C47.6457525,43.3253945 46.4438306,42.1221312 44.9642326,42.1221312 C43.4846345,42.1221312 42.2813712,43.3253945 42.2813712,44.8049926 C42.2813712,46.2845906 43.4846345,47.487854 44.9642326,47.487854 C46.4438306,47.487854 47.6457525,46.2845906 47.6457525,44.8049926 L47.6457525,44.8049926 Z M58.3785395,55.5364381 C58.3785395,54.0568401 57.1752762,52.8535767 55.6943367,52.8535767 C54.2160801,52.8535767 53.0128168,54.0568401 53.0128168,55.5364381 C53.0128168,57.0160362 54.2160801,58.2192995 55.6943367,58.2192995 C57.1752762,58.2192995 58.3785395,57.0160362 58.3785395,55.5364381 L58.3785395,55.5364381 Z" id="Graphs" fill="#22A1E7" sketch:type="MSShapeGroup"></path>
            </g>
            <g id="Intersect-Tool--+-Oval-3" sketch:type="MSLayerGroup" transform="translate(270.000000, 14.000000)">
                <path d="M55.2368421,43.2105263 L43.3947368,43.2105263 C42.7398684,43.2105263 42.2105263,43.7410526 42.2105263,44.3947368 L42.2105263,56.2368421 C42.2105263,58.1955263 43.8032895,59.7894737 45.7631579,59.7894737 L57.6052632,59.7894737 C58.2589474,59.7894737 58.7894737,59.2589474 58.7894737,58.6052632 L58.7894737,46.7631579 C58.7894737,44.8044737 57.1955263,43.2105263 55.2368421,43.2105263 L55.2368421,43.2105263 Z M49.3157895,45.5789474 L51.6842105,45.5789474 L51.6842105,57.4210526 L49.3157895,57.4210526 L49.3157895,45.5789474 Z M44.5789474,56.2368421 L44.5789474,45.5789474 L46.9473684,45.5789474 L46.9473684,57.4210526 L45.7631579,57.4210526 C45.1094737,57.4210526 44.5789474,56.8893421 44.5789474,56.2368421 L44.5789474,56.2368421 Z M56.4210526,57.4210526 L54.0526316,57.4210526 L54.0526316,45.5789474 L55.2368421,45.5789474 C55.8893421,45.5789474 56.4210526,46.1106579 56.4210526,46.7631579 L56.4210526,57.4210526 L56.4210526,57.4210526 Z M58.7894737,63.3421053 L58.7894737,70.4473684 C58.7894737,72.4060526 57.1955263,74 55.2368421,74 L31.5526316,74 C29.5927632,74 28,72.4060526 28,70.4473684 L28,46.7631579 C28,44.8044737 29.5927632,43.2105263 31.5526316,43.2105263 L38.6578947,43.2105263 C39.3115789,43.2105263 39.8421053,43.7410526 39.8421053,44.3947368 C39.8421053,45.0484211 39.3115789,45.5789474 38.6578947,45.5789474 L31.5526316,45.5789474 C30.8989474,45.5789474 30.3684211,46.1106579 30.3684211,46.7631579 L30.3684211,70.4473684 C30.3684211,71.0998684 30.8989474,71.6315789 31.5526316,71.6315789 L55.2368421,71.6315789 C55.8893421,71.6315789 56.4210526,71.0998684 56.4210526,70.4473684 L56.4210526,63.3421053 C56.4210526,62.6884211 56.9503947,62.1578947 57.6052632,62.1578947 C58.2589474,62.1578947 58.7894737,62.6884211 58.7894737,63.3421053 L58.7894737,63.3421053 Z M73,32.5526316 L73,56.2368421 C73,58.1955263 71.4060526,59.7894737 69.4473684,59.7894737 L62.3421053,59.7894737 C61.6872368,59.7894737 61.1578947,59.2589474 61.1578947,58.6052632 C61.1578947,57.9515789 61.6872368,57.4210526 62.3421053,57.4210526 L69.4473684,57.4210526 C70.0998684,57.4210526 70.6315789,56.8893421 70.6315789,56.2368421 L70.6315789,32.5526316 C70.6315789,31.9001316 70.0998684,31.3684211 69.4473684,31.3684211 L45.7631579,31.3684211 C45.1094737,31.3684211 44.5789474,31.9001316 44.5789474,32.5526316 L44.5789474,39.6578947 C44.5789474,40.3115789 44.0484211,40.8421053 43.3947368,40.8421053 C42.7398684,40.8421053 42.2105263,40.3115789 42.2105263,39.6578947 L42.2105263,32.5526316 C42.2105263,30.5939474 43.8032895,29 45.7631579,29 L69.4473684,29 C71.4060526,29 73,30.5939474 73,32.5526316 L73,32.5526316 Z" id="Intersect-Tool-" fill="#22A1E7" sketch:type="MSShapeGroup"></path>
                <ellipse id="Oval-3" stroke="#22A1E7" stroke-width="3" sketch:type="MSShapeGroup" cx="51" cy="51" rx="51" ry="51"></ellipse>
            </g>
            <path d="M30.5526316,163.082645 C30.5526316,163.612074 30.1277368,164.041322 29.6052632,164.041322 L15.3947368,164.041322 C14.8722632,164.041322 14.4473684,163.612074 14.4473684,163.082645 L14.4473684,137.917116 C14.4473684,137.390083 14.8722632,136.958678 15.3947368,136.958678 L29.6052632,136.958678 C30.1277368,136.958678 30.5526316,137.390083 30.5526316,137.917116 L30.5526316,163.082645 L30.5526316,163.082645 Z M29.6052632,136 L15.3947368,136 C14.3500263,136 13.5,136.860413 13.5,137.917116 L13.5,163.082645 C13.5,164.139587 14.3500263,165 15.3947368,165 L29.6052632,165 C30.6499737,165 31.5,164.139587 31.5,163.082645 L31.5,137.917116 C31.5,136.860413 30.6499737,136 29.6052632,136 L29.6052632,136 Z M22.5,162.363636 C22.1082632,162.363636 21.7894737,162.042479 21.7894737,161.644628 C21.7894737,161.248934 22.1082632,160.92562 22.5,160.92562 C22.8917368,160.92562 23.2105263,161.248934 23.2105263,161.644628 C23.2105263,162.042479 22.8917368,162.363636 22.5,162.363636 L22.5,162.363636 Z M22.5,159.966942 C21.5857895,159.966942 20.8421053,160.719264 20.8421053,161.644628 C20.8421053,162.569512 21.5857895,163.322314 22.5,163.322314 C23.4142105,163.322314 24.1578947,162.569512 24.1578947,161.644628 C24.1578947,160.719264 23.4142105,159.966942 22.5,159.966942 L22.5,159.966942 Z M20.6052632,138.876033 L24.3947368,138.876033 C24.6562105,138.876033 24.8684211,138.662488 24.8684211,138.396694 C24.8684211,138.132818 24.6562105,137.917116 24.3947368,137.917116 L20.6052632,137.917116 C20.3437895,137.917116 20.1315789,138.132818 20.1315789,138.396694 C20.1315789,138.662488 20.3437895,138.876033 20.6052632,138.876033 L20.6052632,138.876033 Z M17.0526316,140.553719 L27.9473684,140.553719 L27.9473684,158.289256 L17.0526316,158.289256 L17.0526316,140.553719 Z M16.1052632,159.233314 L28.8947368,159.233314 L28.8947368,139.601992 L16.1052632,139.601992 L16.1052632,159.233314 Z" id="Fill-566-Copy-2" fill="#566C7F" sketch:type="MSShapeGroup"></path>
            <g id="Oval-3-Copy-3-+-Fill-313-Copy" sketch:type="MSLayerGroup" transform="translate(197.500000, 142.000000)" fill="#22A1E7">
                <path d="M10.4616218,41.0476078 C11.1738437,35.7877176 17.0826471,30.9609639 24.5530628,29.6837127 C26.0249879,30.7388562 27.6604603,31.3460912 29.3539656,31.3460912 C31.0105408,31.3460912 32.6090831,30.7652348 34.0599054,29.7528246 C41.6094569,31.0237449 47.5868446,35.8246477 48.3043422,41.0476078 L10.4616218,41.0476078 L10.4616218,41.0476078 Z M3.42381495,34.716747 C5.18590453,31.8784111 8.09810049,29.7422732 11.485111,28.9240094 L11.4692839,28.8659765 C12.4347401,29.5043383 13.4687807,29.858339 14.4817184,29.858339 C15.5685162,29.858339 16.6236597,29.4937869 17.5785645,28.8448737 C18.0058976,28.9292851 18.4226793,29.0453509 18.8341852,29.1719681 C15.7056849,30.5014489 13.0625505,32.45874 11.205498,34.716747 L3.42381495,34.716747 L3.42381495,34.716747 Z M14.4817184,11.387525 C15.7742692,11.387525 17.0193385,12.089723 18.0006219,13.3711948 L18.2380292,13.6829897 C18.1905477,14.2469638 18.1641691,14.8167413 18.1641691,15.3975978 C18.1641691,17.8824606 18.6126051,20.2776363 19.398687,22.4243257 L19.0610411,23.3264733 C18.0692062,26.0118135 16.2701866,27.7475245 14.4817184,27.7475245 C11.7014154,27.7475245 9.1690711,23.6746707 9.1690711,19.2061381 C9.1690711,14.8958771 11.5536953,11.387525 14.4817184,11.387525 L14.4817184,11.387525 Z M21.8466198,28.1273761 C21.0552622,27.7211459 20.2216989,27.3940514 19.3670327,27.1302655 C19.8312958,26.5341095 20.2480775,25.8482662 20.6068262,25.0832872 C21.1924309,26.1437064 21.8729984,27.0986112 22.6168745,27.9321746 C22.3583644,27.9902074 22.0998542,28.0593193 21.8466198,28.1273761 L21.8466198,28.1273761 Z M29.3539656,2.68259147 C34.365897,2.68259147 38.4387508,8.38616947 38.4387508,15.3975978 C38.4387508,22.6411577 34.1073869,29.2358043 29.3539656,29.2358043 C24.6005443,29.2358043 20.2744561,22.6411577 20.2744561,15.3975978 C20.2744561,8.38616947 24.3473098,2.68259147 29.3539656,2.68259147 L29.3539656,2.68259147 Z M40.7706178,13.3711948 C41.7519013,12.089723 42.9969705,11.387525 44.2895213,11.387525 C47.2175444,11.387525 49.6021686,14.8958771 49.6021686,19.2061381 C49.6021686,23.6746707 47.0698243,27.7475245 44.2895213,27.7475245 C42.5010531,27.7475245 40.7020335,26.0118135 39.7101987,23.3264733 L39.3461742,22.3457175 C40.1111532,20.2190758 40.5490377,17.8502788 40.5490377,15.3975978 C40.5490377,14.8431199 40.5226591,14.2944453 40.4804534,13.7510464 L40.7706178,13.3711948 L40.7706178,13.3711948 Z M38.1380349,25.0257819 C38.5020594,25.8065881 38.9241168,26.5077309 39.3936556,27.1197141 C38.4862322,27.3940514 37.6051874,27.7533277 36.7610727,28.185409 C36.5183897,28.1221004 36.2757067,28.0593193 36.027748,28.0007589 C36.8138298,27.140817 37.5260517,26.1384307 38.1380349,25.0257819 L38.1380349,25.0257819 Z M55.2946676,34.716747 L47.4971574,34.716747 C45.6084506,32.4745672 42.9336619,30.5278275 39.7735073,29.2088981 C40.2324947,29.0611781 40.7020335,28.9345608 41.1821238,28.8343222 C42.1423043,29.4937869 43.1974478,29.858339 44.2895213,29.858339 C45.2708047,29.858339 46.273191,29.5254412 47.2122687,28.9240094 C50.6098306,29.7422732 53.5273023,31.8678597 55.2946676,34.716747 L55.2946676,34.716747 Z M58.665851,36.7953797 L58.0063863,35.3134307 C56.3339839,31.5302138 53.0577635,28.6127421 49.0640455,27.2621585 C50.6203821,25.3840031 51.7124556,22.5984243 51.7124556,19.2061381 C51.7124556,13.7299435 48.3834779,9.27723812 44.2895213,9.27723812 C42.7490118,9.27723812 41.2876381,9.89977277 40.0531203,11.0393277 C38.6445038,4.98280423 34.3817242,0.572304548 29.3539656,0.572304548 C24.3420341,0.572304548 20.0845302,4.96170136 18.6653623,10.9918463 C17.4466716,9.87919747 16.001125,9.27723812 14.4817184,9.27723812 C10.3877618,9.27723812 7.05878418,13.7299435 7.05878418,19.2061381 C7.05878418,22.5931486 8.14558194,25.3734517 9.70191855,27.251607 C5.68709767,28.6021907 2.38449863,31.5354895 0.706820526,35.3181788 L0.0526315789,36.8011829 L9.74940001,36.8011829 C8.81032233,38.478861 8.28275059,40.2773531 8.28275059,42.1027513 L8.28275059,43.1578947 L50.4884891,43.1578947 L50.4884891,42.1027513 C50.4884891,40.2773531 49.950366,38.478861 48.9849097,36.7953797 L58.665851,36.7953797 L58.665851,36.7953797 Z" id="Fill-313" sketch:type="MSShapeGroup"></path>
            </g>
            <path d="M167.033333,191.550246 L164.083333,191.550246 L164.083333,177.291421 L152.283333,177.291421 L152.283333,191.550246 L143.925,191.550246 L143.925,184.666421 L146.383333,184.666421 L146.383333,176.800246 L143.925,176.800246 L143.925,175.816421 L146.383333,175.816421 L146.383333,167.950246 L143.925,167.950246 L143.925,166.966421 L146.383333,166.966421 L146.383333,159.100246 L143.925,159.100246 L143.925,158.116421 L146.383333,158.116421 L146.383333,150.250246 L138.516667,150.250246 L138.516667,155.658579 L135.566667,155.658579 L135.566667,138.450246 L167.033333,138.450246 L167.033333,191.550246 L167.033333,191.550246 Z M154.25,179.258579 L162.116667,179.258579 L162.116667,191.550246 L154.25,191.550246 L154.25,179.258579 Z M143.925,178.766421 L144.416667,178.766421 L144.416667,182.699754 L143.925,182.699754 L143.925,178.766421 Z M143.925,169.916421 L144.416667,169.916421 L144.416667,173.849754 L143.925,173.849754 L143.925,169.916421 Z M143.925,161.066421 L144.416667,161.066421 L144.416667,164.999754 L143.925,164.999754 L143.925,161.066421 Z M140.483333,155.658579 L140.483333,152.216421 L144.416667,152.216421 L144.416667,156.150246 L143.925,156.150246 L143.925,155.658579 L140.483333,155.658579 L140.483333,155.658579 Z M141.958333,191.550246 L140.483333,191.550246 L140.483333,177.291421 L128.683333,177.291421 L128.683333,191.550246 L111.966667,191.550246 L111.966667,157.625246 L141.958333,157.625246 L141.958333,191.550246 L141.958333,191.550246 Z M130.65,179.258579 L138.516667,179.258579 L138.516667,191.550246 L130.65,191.550246 L130.65,179.258579 Z M133.6,136.483579 L133.6,155.658579 L110,155.658579 L110,193.516421 L169,193.516421 L169,136.483579 L133.6,136.483579 L133.6,136.483579 Z M116.883333,178.766421 L120.816667,178.766421 L120.816667,182.699754 L116.883333,182.699754 L116.883333,178.766421 Z M114.916667,184.666421 L122.783333,184.666421 L122.783333,176.799754 L114.916667,176.799754 L114.916667,184.666421 Z M116.883333,169.916421 L120.816667,169.916421 L120.816667,173.849754 L116.883333,173.849754 L116.883333,169.916421 Z M114.916667,175.816421 L122.783333,175.816421 L122.783333,167.949754 L114.916667,167.949754 L114.916667,175.816421 Z M125.733333,169.916421 L129.666667,169.916421 L129.666667,173.849754 L125.733333,173.849754 L125.733333,169.916421 Z M123.766667,175.816421 L131.633333,175.816421 L131.633333,167.949754 L123.766667,167.949754 L123.766667,175.816421 Z M134.583333,169.916421 L138.516667,169.916421 L138.516667,173.849754 L134.583333,173.849754 L134.583333,169.916421 Z M132.616667,175.816421 L140.483333,175.816421 L140.483333,167.949754 L132.616667,167.949754 L132.616667,175.816421 Z M149.333333,169.916421 L153.266667,169.916421 L153.266667,173.849754 L149.333333,173.849754 L149.333333,169.916421 Z M147.366667,175.816421 L155.233333,175.816421 L155.233333,167.949754 L147.366667,167.949754 L147.366667,175.816421 Z M158.183333,169.916421 L162.116667,169.916421 L162.116667,173.849754 L158.183333,173.849754 L158.183333,169.916421 Z M156.216667,175.816421 L164.083333,175.816421 L164.083333,167.949754 L156.216667,167.949754 L156.216667,175.816421 Z M134.583333,161.066421 L138.516667,161.066421 L138.516667,164.999754 L134.583333,164.999754 L134.583333,161.066421 Z M132.616667,166.966421 L140.483333,166.966421 L140.483333,159.099754 L132.616667,159.099754 L132.616667,166.966421 Z M125.733333,161.066421 L129.666667,161.066421 L129.666667,164.999754 L125.733333,164.999754 L125.733333,161.066421 Z M123.766667,166.966421 L131.633333,166.966421 L131.633333,159.099754 L123.766667,159.099754 L123.766667,166.966421 Z M116.883333,161.066421 L120.816667,161.066421 L120.816667,164.999754 L116.883333,164.999754 L116.883333,161.066421 Z M114.916667,166.966421 L122.783333,166.966421 L122.783333,159.099754 L114.916667,159.099754 L114.916667,166.966421 Z M149.333333,161.066421 L153.266667,161.066421 L153.266667,164.999754 L149.333333,164.999754 L149.333333,161.066421 Z M147.366667,166.966421 L155.233333,166.966421 L155.233333,159.099754 L147.366667,159.099754 L147.366667,166.966421 Z M158.183333,161.066421 L162.116667,161.066421 L162.116667,164.999754 L158.183333,164.999754 L158.183333,161.066421 Z M156.216667,166.966421 L164.083333,166.966421 L164.083333,159.099754 L156.216667,159.099754 L156.216667,166.966421 Z M149.333333,152.216421 L153.266667,152.216421 L153.266667,156.149754 L149.333333,156.149754 L149.333333,152.216421 Z M147.366667,158.116421 L155.233333,158.116421 L155.233333,150.249754 L147.366667,150.249754 L147.366667,158.116421 Z M158.183333,152.216421 L162.116667,152.216421 L162.116667,156.149754 L158.183333,156.149754 L158.183333,152.216421 Z M156.216667,158.116421 L164.083333,158.116421 L164.083333,150.249754 L156.216667,150.249754 L156.216667,158.116421 Z M140.483333,143.366912 L144.416667,143.366912 L144.416667,147.300246 L140.483333,147.300246 L140.483333,143.366912 Z M138.516667,149.266421 L146.383333,149.266421 L146.383333,141.399754 L138.516667,141.399754 L138.516667,149.266421 Z M149.333333,143.366912 L153.266667,143.366912 L153.266667,147.300246 L149.333333,147.300246 L149.333333,143.366912 Z M147.366667,149.266421 L155.233333,149.266421 L155.233333,141.399754 L147.366667,141.399754 L147.366667,149.266421 Z M158.183333,143.366912 L162.116667,143.366912 L162.116667,147.300246 L158.183333,147.300246 L158.183333,143.366912 Z M156.216667,149.266421 L164.083333,149.266421 L164.083333,141.399754 L156.216667,141.399754 L156.216667,149.266421 Z" id="Fill-141-Copy" fill="#22A1E7" sketch:type="MSShapeGroup"></path>
            <rect id="Rectangle-30-Copy-5" fill="#FFFFFF" sketch:type="MSShapeGroup" x="38.5" y="130" width="28" height="28" rx="1"></rect>
            <rect id="Rectangle-30-Copy-3" fill="#FFFFFF" sketch:type="MSShapeGroup" x="38.5" y="162" width="28" height="28" rx="1"></rect>
            <rect id="Rectangle-30-Copy-4" fill="#FFFFFF" sketch:type="MSShapeGroup" x="72.5" y="159" width="28" height="28" rx="1"></rect>
            <path d="M58.7631579,184.677686 C58.7631579,185.04281 58.4326842,185.338843 58.0263158,185.338843 L46.9736842,185.338843 C46.5673158,185.338843 46.2368421,185.04281 46.2368421,184.677686 L46.2368421,167.322149 C46.2368421,166.958678 46.5673158,166.661157 46.9736842,166.661157 L58.0263158,166.661157 C58.4326842,166.661157 58.7631579,166.958678 58.7631579,167.322149 L58.7631579,184.677686 L58.7631579,184.677686 Z M58.0263158,166 L46.9736842,166 C46.1611316,166 45.5,166.593388 45.5,167.322149 L45.5,184.677686 C45.5,185.406612 46.1611316,186 46.9736842,186 L58.0263158,186 C58.8388684,186 59.5,185.406612 59.5,184.677686 L59.5,167.322149 C59.5,166.593388 58.8388684,166 58.0263158,166 L58.0263158,166 Z M52.5,184.181818 C52.1953158,184.181818 51.9473684,183.960331 51.9473684,183.68595 C51.9473684,183.413058 52.1953158,183.190083 52.5,183.190083 C52.8046842,183.190083 53.0526316,183.413058 53.0526316,183.68595 C53.0526316,183.960331 52.8046842,184.181818 52.5,184.181818 L52.5,184.181818 Z M52.5,182.528926 C51.7889474,182.528926 51.2105263,183.047769 51.2105263,183.68595 C51.2105263,184.323802 51.7889474,184.842975 52.5,184.842975 C53.2110526,184.842975 53.7894737,184.323802 53.7894737,183.68595 C53.7894737,183.047769 53.2110526,182.528926 52.5,182.528926 L52.5,182.528926 Z M51.0263158,167.983471 L53.9736842,167.983471 C54.1770526,167.983471 54.3421053,167.836198 54.3421053,167.652893 C54.3421053,167.470909 54.1770526,167.322149 53.9736842,167.322149 L51.0263158,167.322149 C50.8229474,167.322149 50.6578947,167.470909 50.6578947,167.652893 C50.6578947,167.836198 50.8229474,167.983471 51.0263158,167.983471 L51.0263158,167.983471 Z M48.2631579,169.140496 L56.7368421,169.140496 L56.7368421,181.371901 L48.2631579,181.371901 L48.2631579,169.140496 Z M47.5263158,182.022975 L57.4736842,182.022975 L57.4736842,168.484132 L47.5263158,168.484132 L47.5263158,182.022975 Z" id="Fill-566-Copy-2" fill="#22A1E7" sketch:type="MSShapeGroup"></path>
            <path d="M45.3972686,149.494069 L45.7821851,149.980128 L51.2410816,144.986777 L52.9995547,146.595589 L54.8326953,144.91848 L60.3493367,149.980128 L60.7348469,149.494708 L55.2907949,144.499601 L60.7496914,139.505133 L60.3649234,139.019074 L52.9995547,145.757513 L51.5753785,144.454602 L51.2946701,144.099712 L51.2410816,144.148701 L45.634186,139.019074 L45.2494179,139.505133 L50.782982,144.567739 L45.3972686,149.494069 L45.3972686,149.494069 Z M43.9444427,137.638451 L61.9062222,137.638451 L61.9062222,151.361549 L43.9444427,151.361549 L43.9444427,137.638451 Z M43.5,152 L62.5,152 L62.5,137 L43.5,137 L43.5,152 Z" id="Fill-38-Copy" fill="#22A1E7" sketch:type="MSShapeGroup"></path>
            <path d="M81.1219162,174.14459 L92.488503,168.011714 L86.3562874,179.37749 L86.6840719,173.816771 L81.1219162,174.14459 L81.1219162,174.14459 Z M94.5,166 L77.5,175.172845 L85.8167665,174.684373 L85.3281437,183 L94.5,166 L94.5,166 Z" id="Fill-476-Copy" fill="#22A1E7" sketch:type="MSShapeGroup"></path>
        </g>
    </g>
</svg>